<svg width="62" height="50" viewBox="0 0 62 50" fill="none" xmlns="http://www.w3.org/2000/svg">
<path fill-rule="evenodd" clip-rule="evenodd" d="M10 0C4.47715 0 0 4.47715 0 10V29C0 34.5228 4.47715 39 10 39H23.2583L26.5 44.6147C29.2614 49.3977 35.3773 51.0364 40.1603 48.275L56.6147 38.775C61.3977 36.0136 63.0364 29.8977 60.275 25.1147L50.775 8.66025C48.0924 4.01389 42.2442 2.33472 37.5276 4.77421C35.7687 1.91016 32.6074 0 29 0H10ZM37.5276 4.77421C37.3889 4.8459 37.2513 4.92116 37.1147 5L20.6603 14.5C15.8773 17.2614 14.2386 23.3773 17 28.1603L23.2583 39H29C34.5228 39 39 34.5228 39 29V10C39 8.08457 38.4615 6.29493 37.5276 4.77421Z" fill="#C94592" fill-opacity="0.939786"/>
</svg>
